<svg xmlns="http://www.w3.org/2000/svg" viewBox="0 0 430 559.11"><style>
      .sym-1{fill:currentColor;}

      .sym-2{fill:currentColor;}

      .sym-3{fill:currentColor;opacity:.45;}

      .sym-4{fill:currentColor;}

      .sym-5{fill:currentColor;}

      .sym-6{fill:currentColor;} path:not([class]){fill:currentColor;}
    </style><path class="sym-4" d="M429.34,196.85c-20.3-15.45-48.86-11.8-72.09-1.65-31.75,13.87-64.15,42.2-87.91,67.22-7.25-14.4-12.59-28.31-17.95-43.4,13.37-24.85,31.46-58.25,55.1-73.84,12.97-8.55,29.45-6.97,31.92,2.93.92,3.7-.32,7.22-2.69,10.24-8.31,10.59-23.5,7.89-21.8,16.87,1.93,10.21,27.29,3.72,36.88-12.82,7.92-13.64.87-29.72-14.1-34.55-11.48-3.71-23.26-1.62-34.01,3.81-24.79,12.54-43.76,43.5-57.43,67.82-4.75-15.11-8.72-28.84-12.04-43.56l15.71-31.84c5.79-11.73,9.17-23.74,9.63-36.74.87-24.56-11.39-42.38-29.12-59.17-10.15,8.53-18.84,17.54-24.57,29.14-15.73,31.87-.89,62.33,14.1,91.83,2.22,4.36,2.7,8.24.97,12.89l-14.34,38.54-7.74-13.98c-12.03-21.74-29.84-48.78-53.62-57.63-12.23-4.55-25.5-4.15-36.01,3.27-10.2,7.19-12.68,20.08-6.38,30.73,9.81,16.59,33.53,21.87,34.89,12.28,1.26-8.86-11.9-7.01-19.25-15.96-2.91-3.54-4.27-8.16-2.37-12.63,1.25-2.95,5.13-5.86,9.48-6.63,31.97-5.59,60.01,52.02,74.22,77.83-5.97,14.87-11.93,29.26-20.28,44.24-18.28-18.48-37.16-35.26-58.28-50.1-27.86-19.58-67.62-35.57-98.91-18.53C7.25,201.13-.6,214.95.04,230.47c.59,14.32,9.73,27.34,23.76,33.94,21.92,10.3,44.9,4.77,66.48-5,14.5-6.57,29.42-14.32,45.39-16.76,12.3,10.31,23.74,21.1,35.02,33.01-13,20.33-31.44,44.73-52.11,56.66-11.02,6.36-24.7,7.57-29.81-2.22-2.49-4.76-1.48-9.55,1.38-13.66,8.63-12.39,21.56-8.81,23.73-15.86.61-1.99.11-4.45-1.61-5.98-2.95-2.62-6.98-3.13-10.88-2.07-21.1,5.71-36.52,25.55-27.07,44.21,3.24,6.4,9.67,11.72,18.15,13.78,35.36,8.61,70.49-35.31,88.18-63.44,13.32,15.95,24.79,32.27,34.78,49.69l-12.31,24.01c-5.55,10.82-8.42,22.27-9.55,34.38-2.58,27.54,10.88,48.78,30.94,67.03,43.53-41.41,34.47-76.44,8.06-125.08,9.33-17.77,20.67-33.51,34.21-49.45,16.65,27.39,50.28,70.94,85.07,63.03,8.27-1.88,15.06-7.41,18.24-13.6,4.17-8.13,3.7-16.73-.5-24.32-10.95-19.83-37.1-26.14-39.16-15.26-2.01,10.61,14.99,5.33,24.57,19.64,2.76,4.13,3.2,9.01.75,13.38-4.41,7.86-14.85,8.61-24.5,4.27-21.77-9.8-42.16-38.04-54.35-58.98,11.43-11.56,22.1-22.49,34.3-32.6,8.72.83,16.32,3.3,23.97,6.65l26.65,11.66c21.02,9.2,47.01,13.42,66.16.46,11.1-7.52,17.58-19.75,17.87-32.34.3-12.83-5.86-24.65-16.52-32.76ZM31.91,252.08c-7.94-3.93-12.93-10.56-14.47-18.18-3.44-17.03,10.79-31.77,31.67-33.03,25.82-1.56,53.38,15.02,74,31.15-30.22,7.12-62.13,34.46-91.21,20.06ZM227.44,62.98c1.96,0,3.54,11.99,3.54,26.78s-1.59,26.78-3.54,26.78-3.54-11.99-3.54-26.78,1.59-26.78,3.54-26.78ZM226.36,184.91l9.53,31.22-11.05,20.92-10.38-20.19c4.61-10.73,7.93-21.07,11.89-31.95ZM223.9,426.96c-1.96,0-3.54-11.99-3.54-26.78s1.59-26.78,3.54-26.78,3.54,11.99,3.54,26.78-1.59,26.78-3.54,26.78ZM223.96,322.09c-11.27-17.45-22.25-33.02-35.43-48.54,6.97-12.83,13.02-25.37,18.94-39.58l14.02,23.46c4.43,6.13,11.05-6.21,15.88-15.12l4.68-7.99c5.48,13.56,10.41,25.99,17.22,39.05-13.23,15.51-25.05,31.49-35.31,48.73ZM429.13,230.43c-1.24,18.64-20.64,29.16-41.29,25-22.07-4.46-40.98-17.46-63.36-23.33,12.75-10.19,25.55-18.23,39.99-24.47,16.42-7.1,38.11-10.61,52.66-.7,8.08,5.5,12.62,14.13,12,23.51Z"/></svg>